<?xml version="1.0" encoding="iso-8859-1"?>
<!-- Generator: Adobe Illustrator 19.0.0, SVG Export Plug-In . SVG Version: 6.00 Build 0)  -->
<svg version="1.1" id="Capa_1" xmlns="http://www.w3.org/2000/svg" xmlns:xlink="http://www.w3.org/1999/xlink" x="0px" y="0px"
	 viewBox="0 0 512 512" style="enable-background:new 0 0 512 512;" xml:space="preserve">
<ellipse style="fill:#2196F3;" cx="256" cy="432" rx="240" ry="80"/>
<path style="fill:#455A64;" d="M256,448c-8.832,0-16-7.168-16-16V208c0-8.832,7.168-16,16-16s16,7.168,16,16v224
	C272,440.832,264.832,448,256,448z"/>
<circle style="fill:#F44336;" cx="256" cy="112" r="112"/>
<path style="fill:#EF9A9A;" d="M304,112c-8.832,0-16-7.168-16-16s-7.168-16-16-16s-16-7.168-16-16s7.168-16,16-16
	c26.464,0,48,21.536,48,48C320,104.832,312.832,112,304,112z"/>
<g>
</g>
<g>
</g>
<g>
</g>
<g>
</g>
<g>
</g>
<g>
</g>
<g>
</g>
<g>
</g>
<g>
</g>
<g>
</g>
<g>
</g>
<g>
</g>
<g>
</g>
<g>
</g>
<g>
</g>
</svg>
