<svg id="Layer_1" data-name="Layer 1" xmlns="http://www.w3.org/2000/svg" viewBox="0 0 578.45 1601.97"><defs><style>.cls-1{fill:#5097ff;}</style></defs><path class="cls-1" d="M291.43,189.76c0,8-.07,15.9,0,23.84q.44,38.82,1,77.64c.27,18.54.67,37.09.95,55.64q.54,34.42,1,68.84c.32,23.44.58,46.87,1,70.31.14,7.75.68,15.5,1,23.23,6.63-13.33,12.92-26.85,19.94-40,20.79-38.89,46.13-74.82,72.73-109.86,30.32-39.92,63.7-77.08,101.57-110,35.09-30.54,72.92-56.89,116.49-74.07,23.55-9.28,47.76-15.43,73.38-16.21,60.68-1.83,104.68,25.65,135.47,76.24,9,14.78,12.48,31.56,13.16,49,1.13,29-7.82,55.69-17.27,82.48-16.75,47.45-40.63,91.51-63.19,136.26C704.52,590.6,660.5,678.25,617.44,766.36c-44.34,90.75-84.83,183.29-123,276.78-23.49,57.46-45.48,115.54-68.27,173.29a12,12,0,0,0,.47,10.5c38.74,82.23,82.93,161.48,130.17,239.08,55.3,90.84,114.61,179,174.74,266.71a31.68,31.68,0,0,1,4,7C615,1590.21,500.92,1436.28,408.72,1267,347.4,1427,309.31,1592.73,281,1761l-2.21-.13c-.54-4.11-1.16-8.21-1.61-12.33q-4.87-44.61-9.69-89.22c-3.07-28.61-6.53-57.19-8.92-85.86-1.77-21.22-2.71-42.55-3-63.85q-1-79.62-.88-159.27c0-41.85.7-83.7,1.16-125.55.22-19.21.58-38.42.95-57.62q.92-48.09,1.92-96.18.9-42.23,1.92-84.44c.62-26.69.4-53.43,2.22-80,1.34-19.62-2.27-38.48-4.54-57.63-2.2-18.53-4.71-37.08-5.71-55.7-1.32-24.52-2.33-49.13-1.64-73.65a589.08,589.08,0,0,1,20.68-138.88c2.26-8.29,1.86-17.38,2.2-26.12.89-22.92,1.47-45.85,2.26-68.77.51-14.78,1.19-29.56,1.77-44.34,1-26.32,2-52.64,3.08-79,.84-20.14,1.85-40.26,2.78-60.4q1.51-32.88,3-65.76c.62-13.47,1.23-26.95,1.91-40.42.11-2.14.59-4.26.9-6.39Zm94.9,945.81c.74-.68,1.07-.84,1.16-1.08,2.83-7.62,5.58-15.26,8.46-22.85,44.66-117.71,94-233.42,146.81-347.7Q611.33,615.49,687.4,470.76c16.51-31.36,32.65-63,47.17-95.31,9.83-21.86,17.06-44.95,24.43-67.81,4.61-14.3,4.74-29.26-3.85-42.4-13-19.92-30.54-34.14-54.7-38.4-13-2.29-25.92-1.29-38.75,1.31-34.45,7-64.87,22.94-93.55,42.54-37.21,25.42-69.7,56.17-99.49,89.79C431.09,402.86,397,447.87,368.85,497.1,327.63,569.2,307.24,647.41,303.28,730c-1.85,38.69-.95,77.45,4.61,115.9,3.67,25.37,7.21,50.8,12.24,75.92,12.33,61.59,30.79,121.46,53.12,180.15C377.5,1113.09,381.9,1124.19,386.33,1135.57ZM306.5,1374.7l.81.12c.3-.7.67-1.37.9-2.09q29.32-90.33,58.5-180.7a11.42,11.42,0,0,0-.48-7.71c-20.91-44.25-40.07-89.23-56.67-135.28-2.33-6.47-4.6-13-6.9-19.45l-1,.19Q304.06,1202.25,306.5,1374.7Z" transform="translate(-250.77 -159.02)"/></svg>